# xmcd CD database file
#
# Track frame offsets:
#	150
#	15792
#	26837
#	50922
#	81359
#	94912
#	104181
#	111691
#
# Disc length: 2101 seconds
#
# Revision: 0
# Processed by: cddbd v1.5.2PL0 Copyright (c) Steve Scherf et al.
# Submitted via: CDex 1.51
#
DISCID=6f083308
DTITLE=Brian Browne Trio - The Letter
DYEAR=1971
DGENRE=Jazz
TTITLE0=01-If I Were A Carpenter
TTITLE1=02-Hi-Heel Sneakers
TTITLE2=03-MEDLY - A Salty Dog\ Sgt Peppers Lonely Hearts Club Band
TTITLE3=04- What The Woeld Needs Now is Love
TTITLE4=05-The Bread Song
TTITLE5=06-Games People Play
TTITLE6=07-Morning, Noon and Night-time Too
TTITLE7=08-The Letter
EXTD=YEAR: 1971
EXTT0=
EXTT1=
EXTT2=
EXTT3=
EXTT4=
EXTT5=
EXTT6=
EXTT7=
PLAYORDER=
